<svg width="26" height="26" viewBox="0 0 26 26" fill="none" xmlns="http://www.w3.org/2000/svg">
<path d="M18.2353 1C18.2353 0.447715 17.7876 0 17.2353 0C16.683 0 16.2353 0.447715 16.2353 1H18.2353ZM16.2353 6.18919C16.2353 6.74147 16.683 7.18919 17.2353 7.18919C17.7876 7.18919 18.2353 6.74147 18.2353 6.18919H16.2353ZM9.76471 1C9.76471 0.447715 9.31699 0 8.76471 0C8.21242 0 7.76471 0.447715 7.76471 1H9.76471ZM7.76471 6.18919C7.76471 6.74147 8.21242 7.18919 8.76471 7.18919C9.31699 7.18919 9.76471 6.74147 9.76471 6.18919H7.76471ZM24.9754 12.6757L25.9746 12.636L25.9746 12.636L24.9754 12.6757ZM16.2353 1V6.18919H18.2353V1H16.2353ZM7.76471 1V6.18919H9.76471V1H7.76471ZM24.9754 11.6757H1.02447V13.6757H24.9754V11.6757ZM13 24C8.43643 24 5.78667 23.3378 4.23545 21.9123C2.71117 20.5116 2 18.1367 2 13.973H0C0 18.2417 0.700593 21.3803 2.8822 23.385C5.03686 25.3649 8.3871 26 13 26V24ZM24 13.973C24 18.1367 23.2888 20.5116 21.7645 21.9123C20.2133 23.3378 17.5636 24 13 24V26C17.6129 26 20.9631 25.3649 23.1178 23.385C25.2994 21.3803 26 18.2417 26 13.973H24ZM2 13.973C2 13.5359 2.00774 13.1169 2.02368 12.7154L0.0252591 12.636C0.00814814 13.0669 0 13.5125 0 13.973H2ZM2.02368 12.7154C2.16694 9.10798 2.96197 7.04515 4.49171 5.81315C6.07499 4.53803 8.68407 3.94595 13 3.94595V1.94595C8.62787 1.94595 5.3962 2.51674 3.23723 4.25549C1.02474 6.03736 0.17603 8.83939 0.0252591 12.636L2.02368 12.7154ZM13 3.94595C17.3159 3.94595 19.925 4.53803 21.5082 5.81314C23.0379 7.04514 23.8329 9.10797 23.9762 12.7154L25.9746 12.636C25.8239 8.8394 24.9752 6.03737 22.7627 4.2555C20.6038 2.51674 17.3721 1.94595 13 1.94595V3.94595ZM23.9762 12.7154C23.9922 13.1171 24 13.5361 24 13.973H26C26 13.5123 25.9917 13.0667 25.9746 12.636L23.9762 12.7154Z" fill="#0184FB"/>
</svg>
