<svg width="26" height="26" viewBox="0 0 26 26" fill="none" xmlns="http://www.w3.org/2000/svg">
<path d="M7.66667 6.66666C7.11438 6.66666 6.66667 7.11437 6.66667 7.66666C6.66667 8.21894 7.11438 8.66666 7.66667 8.66666V6.66666ZM18.3333 8.66666C18.8856 8.66666 19.3333 8.21894 19.3333 7.66666C19.3333 7.11437 18.8856 6.66666 18.3333 6.66666V8.66666ZM7.66667 12C7.11438 12 6.66667 12.4477 6.66667 13C6.66667 13.5523 7.11438 14 7.66667 14V12ZM14.3333 14C14.8856 14 15.3333 13.5523 15.3333 13C15.3333 12.4477 14.8856 12 14.3333 12V14ZM6.33333 18.9919H7.33333C7.33333 18.5427 7.03387 18.1487 6.60113 18.0284L6.33333 18.9919ZM11.6832 19.6502L11.7094 18.6505C11.4351 18.6433 11.17 18.7491 10.976 18.943L11.6832 19.6502ZM6.33333 25H5.33333C5.33333 25.4045 5.57698 25.7691 5.95065 25.9239C6.32433 26.0787 6.75444 25.9931 7.04044 25.7071L6.33333 25ZM7.66667 8.66666H18.3333V6.66666H7.66667V8.66666ZM7.66667 14H14.3333V12H7.66667V14ZM2 10.3333C2 6.85623 2.69464 4.9292 4.17276 3.77955C5.73385 2.56537 8.4183 2 13 2V0C8.40523 0 5.08968 0.532667 2.94488 2.20084C0.71713 3.93354 0 6.67316 0 10.3333H2ZM24 10.3333C24 13.8104 23.3054 15.7374 21.8272 16.8871C20.2662 18.1013 17.5817 18.6666 13 18.6666V20.6666C17.5948 20.6666 20.9103 20.134 23.0551 18.4658C25.2829 16.7331 26 13.9935 26 10.3333H24ZM13 2C17.5817 2 20.2662 2.56537 21.8272 3.77955C23.3054 4.9292 24 6.85623 24 10.3333H26C26 6.67316 25.2829 3.93354 23.0551 2.20084C20.9103 0.532667 17.5948 0 13 0V2ZM6.60113 18.0284C4.80192 17.5283 3.71618 16.7359 3.04155 15.6065C2.34017 14.4324 2 12.7589 2 10.3333H0C0 12.8922 0.348369 14.9981 1.32458 16.6322C2.32755 18.3112 3.90849 19.3558 6.06554 19.9554L6.60113 18.0284ZM13 18.6666C12.5535 18.6666 12.1234 18.6613 11.7094 18.6505L11.657 20.6498C12.0902 20.6612 12.5378 20.6666 13 20.6666V18.6666ZM5.33333 18.9919V25H7.33333V18.9919H5.33333ZM7.04044 25.7071L12.3903 20.3573L10.976 18.943L5.62622 24.2929L7.04044 25.7071Z" fill="#0184FB"/>
</svg>
