<svg width="22" height="12" viewBox="0 0 22 12" fill="none" xmlns="http://www.w3.org/2000/svg">
<path d="M6 11C6 9.125 8.5 9.125 9.75 7.875C10.375 7.25 8.5 7.25 8.5 4.125C8.5 2.04188 9.33312 1 11 1C12.6669 1 13.5 2.04188 13.5 4.125C13.5 7.25 11.625 7.25 12.25 7.875C13.5 9.125 16 9.125 16 11" stroke="#79797B" stroke-linecap="round"/>
<path d="M16 8C16 7.0625 17.25 7.0625 17.875 6.4375C18.1875 6.125 17.25 6.125 17.25 4.5625C17.25 3.52094 17.6666 3 18.5 3C19.3334 3 19.75 3.52094 19.75 4.5625C19.75 6.125 18.8125 6.125 19.125 6.4375C19.75 7.0625 21 7.0625 21 8" stroke="#79797B" stroke-width="0.5" stroke-linecap="round"/>
<path d="M1 8C1 7.0625 2.25 7.0625 2.875 6.4375C3.1875 6.125 2.25 6.125 2.25 4.5625C2.25 3.52094 2.66656 3 3.5 3C4.33344 3 4.75 3.52094 4.75 4.5625C4.75 6.125 3.8125 6.125 4.125 6.4375C4.75 7.0625 6 7.0625 6 8" stroke="#79797B" stroke-width="0.5" stroke-linecap="round"/>
</svg>
