<svg width="23" height="24" viewBox="0 0 23 24" fill="none" xmlns="http://www.w3.org/2000/svg">
<path d="M3.47917 8.88817C3.48302 8.94026 3.74907 12.2207 4.03898 15.4663M3.47917 8.88817C3.43933 8.39377 2.99501 8.05056 2.50361 8.06376C2.00497 8.10336 1.63309 8.53777 1.67415 9.03337C1.68018 9.11378 2.33096 17.1467 2.71128 20.5547L4.03898 15.4663M3.47917 8.88817L2.98079 8.92834C2.96569 8.74101 2.78985 8.56262 2.53064 8.56338C2.31136 8.58741 2.15483 8.7795 2.17244 8.9921L2.17276 8.99594L2.17274 8.99594C2.17273 8.9958 2.17288 8.99771 2.17332 9.00321L2.17496 9.02376L2.18098 9.0982L2.20318 9.37103C2.22228 9.60483 2.24967 9.93832 2.28355 10.3469C2.35132 11.1642 2.44507 12.2817 2.5505 13.5032C2.76156 15.9483 3.01883 18.8024 3.2082 20.4993L3.20822 20.4995C3.31106 21.4254 3.67207 22.1477 4.20256 22.6419C4.73225 23.1353 5.46375 23.432 6.36494 23.4497L6.3654 23.4497C7.9403 23.482 9.53181 23.5 11.1641 23.5C12.6782 23.5 14.2278 23.4844 15.8348 23.4569C16.7853 23.4395 17.5362 23.145 18.0727 22.6544C18.6094 22.1635 18.9718 21.4397 19.0778 20.4908C19.4264 17.3648 20.0134 10.2244 20.1033 9.13017C20.1097 9.05322 20.1135 9.00617 20.1147 8.99252C20.1313 8.77999 19.9747 8.58764 19.7536 8.56325C19.4972 8.56109 19.3218 8.73753 19.3064 8.92834L19.3061 8.93239C19.3061 8.9321 19.306 8.93265 19.3058 8.93461L19.3055 8.93919L19.3038 8.95979L19.2976 9.03443L19.2752 9.30754C19.2559 9.54147 19.2284 9.87493 19.1944 10.2833C19.1263 11.0999 19.0324 12.2161 18.927 13.4346C18.7164 15.8695 18.4593 18.7202 18.2714 20.4038M3.47917 8.88817L2.98053 8.92506C2.98466 8.98089 3.25097 12.2642 3.54097 15.5108L3.54099 15.5111L3.59922 16.1588L3.59925 16.1591C3.74529 17.7726 3.89368 19.327 4.01451 20.4117C4.08755 21.0719 4.3111 21.6395 4.73637 22.0445C5.16464 22.4524 5.73524 22.6363 6.38237 22.6495M4.03898 15.4663L4.09721 16.114L4.03898 15.4663ZM6.38237 22.6495C6.38226 22.6495 6.38214 22.6495 6.38203 22.6495L6.39256 22.1496L6.38237 22.6495ZM6.38237 22.6495C9.40763 22.7132 12.4941 22.7168 15.8203 22.6567L15.8209 22.6567C16.4935 22.6438 17.0841 22.468 17.5273 22.0601C17.9696 21.6528 18.1965 21.0771 18.2714 20.4038M18.2714 20.4038C18.2714 20.4037 18.2714 20.4036 18.2714 20.4036L17.7745 20.3483L18.2714 20.4038ZM7.48194 2.15702L7.48592 2.14204C7.61897 1.64125 8.07555 1.30003 8.58733 1.30003H13.6981C14.1827 1.30003 14.6568 1.6156 14.7861 2.0816L14.7909 2.09898L14.7944 2.11668L15.0877 3.57548L7.48194 2.15702ZM7.48194 2.15702L7.4789 2.1722M7.48194 2.15702L7.4789 2.1722M7.4789 2.1722L7.19764 3.5759C7.19763 3.57598 7.19761 3.57606 7.1976 3.57613C7.19759 3.57616 7.19759 3.57619 7.19758 3.57622C7.16809 3.7228 7.1252 3.86391 7.07036 3.99851L6.78974 4.68718M7.4789 2.1722L6.78974 4.68718M6.78974 4.68718H7.53339M6.78974 4.68718H7.53339M7.53339 4.68718H14.7524H15.4965M7.53339 4.68718H15.4965M15.4965 4.68718L15.2154 3.9983M15.4965 4.68718L15.2154 3.9983M15.2154 3.9983C15.1605 3.86368 15.1175 3.72252 15.0878 3.5759L15.2154 3.9983ZM17.4101 4.68667V4.68673L17.4179 4.68673L21.3802 4.68686C21.6068 4.68686 21.7857 4.86909 21.7857 5.08688C21.7857 5.30466 21.6068 5.48689 21.3802 5.48689L17.4533 5.48671V5.48661L17.4434 5.48681L17.4432 5.48681L17.4259 5.4861L17.4157 5.48569L17.4055 5.48569L4.8797 5.48672L4.87472 5.48677L4.86547 5.48681L4.86412 5.48673L4.84796 5.48568L4.83176 5.48569L0.905531 5.48689C0.905495 5.48689 0.905459 5.48689 0.905423 5.48689C0.905408 5.48689 0.905393 5.48689 0.905378 5.48689C0.678854 5.48681 0.5 5.30462 0.5 5.08688C0.5 4.86909 0.678935 4.68686 0.905531 4.68686H0.905682L4.86708 4.68566L4.88272 4.68566L4.89832 4.68468L5.02029 4.677L5.03662 4.67598L5.05284 4.67388C5.71561 4.58842 6.26767 4.08925 6.40308 3.41954L6.40318 3.41901L6.69335 1.97582C6.93863 1.08037 7.7142 0.5 8.58733 0.5H13.6981C14.5775 0.5 15.3485 1.08635 15.5803 1.92279L15.8834 3.4184C15.8834 3.41871 15.8835 3.41902 15.8836 3.41933C16.0296 4.14793 16.67 4.67506 17.4101 4.68667Z" stroke="#0184FB"/>
</svg>
