<svg width="25" height="24" viewBox="0 0 25 24" fill="none" xmlns="http://www.w3.org/2000/svg">
<path d="M9.13032 5.46385C9.13032 5.20232 9.12666 4.9636 9.13117 4.72489C9.13877 4.32064 9.4625 4.00282 9.86084 4.00282C10.2538 4.00282 10.5795 4.31782 10.588 4.71109C10.5922 4.90787 10.5891 5.10492 10.5894 5.3017C10.5894 5.34786 10.5894 5.39403 10.5894 5.4509H14.9381C14.9412 5.41458 14.9474 5.37433 14.9477 5.33435C14.9488 5.12801 14.9452 4.92166 14.9494 4.7156C14.9564 4.35752 15.2171 4.06447 15.5729 4.00816C15.9096 3.95496 16.2556 4.16665 16.3637 4.50137C16.3921 4.58892 16.4017 4.68491 16.4051 4.77753C16.4113 4.95544 16.4065 5.13364 16.4073 5.31183C16.4073 5.35744 16.4115 5.40304 16.4146 5.46356C16.5247 5.46356 16.6269 5.46356 16.7288 5.46356C17.0666 5.46413 17.4022 5.48552 17.7355 5.54436C18.5032 5.67948 19.0847 6.09724 19.529 6.72275C19.7984 7.10223 19.9462 7.52927 19.9833 7.99067C20.0123 8.34987 20.0357 8.71077 20.0362 9.0711C20.0408 11.5228 20.0396 13.9744 20.0377 16.4258C20.0374 16.8382 20.0213 17.25 19.9583 17.6591C19.7916 18.7392 18.8897 19.6792 17.8168 19.8948C17.3915 19.9801 16.9602 19.9948 16.5303 19.9959C14.0227 20.0015 11.5147 20.0012 9.00674 19.9959C8.59067 19.995 8.17291 19.9841 7.76163 19.9027C6.95511 19.7431 6.35887 19.2865 5.9245 18.603C5.71196 18.2688 5.59232 17.8995 5.55826 17.5073C5.52729 17.1529 5.50337 16.7968 5.5028 16.4413C5.49858 13.8866 5.49942 11.3319 5.50337 8.7772C5.50393 8.351 5.52898 7.92479 5.63962 7.50901C5.8986 6.53358 6.79352 5.71692 7.78556 5.54689C8.11914 5.48974 8.45442 5.46553 8.79223 5.46441C8.8992 5.46413 9.0059 5.46441 9.1306 5.46441L9.13032 5.46385ZM6.95708 9.8109H18.5786C18.5786 9.49167 18.5856 9.18257 18.5766 8.87404C18.5687 8.60267 18.5499 8.33129 18.5234 8.06133C18.4697 7.51464 17.9587 7.07492 17.5677 6.99469C17.1936 6.91784 16.8147 6.91418 16.4349 6.926C16.4279 6.926 16.4211 6.93754 16.4124 6.94543C16.411 6.96203 16.4079 6.98061 16.4079 6.99919C16.4073 7.21004 16.411 7.42118 16.4065 7.63203C16.3963 8.11678 15.9963 8.37324 15.6602 8.36676C15.3086 8.36001 14.9342 8.05907 14.9477 7.61542C14.9533 7.42821 14.9491 7.24045 14.9483 7.05296C14.9483 7.01214 14.9432 6.97161 14.9401 6.92685H10.5961C10.5936 6.97949 10.5899 7.02537 10.5897 7.07098C10.5888 7.25368 10.5902 7.43666 10.5885 7.61936C10.5883 7.67059 10.5854 7.72267 10.5764 7.77278C10.5179 8.09848 10.2175 8.4028 9.77385 8.36141C9.42703 8.32904 9.13792 8.01319 9.13089 7.64244C9.12694 7.44088 9.1306 7.23932 9.12976 7.03776C9.12976 7.00173 9.12385 6.96598 9.11991 6.92093C8.77534 6.91925 8.4395 6.91784 8.10507 6.96879C7.96065 6.99075 7.8199 7.02537 7.69378 7.10138C7.32276 7.32574 7.06968 7.63174 7.00916 8.07653C6.93118 8.65024 6.96974 9.22621 6.95708 9.8109Z" fill="#7B7F99"/>
</svg>
