<svg width="14" height="13" viewBox="0 0 14 13" fill="none" xmlns="http://www.w3.org/2000/svg">
<path fill-rule="evenodd" clip-rule="evenodd" d="M6.53333 0.933333H1.4C1.14227 0.933333 0.933333 1.14227 0.933333 1.4V5.6H6.53333V0.933333ZM7.46667 0.933333V5.6H13.0667V1.4C13.0667 1.14227 12.8577 0.933333 12.6 0.933333H7.46667ZM6.53333 6.53333H0.933333V10.7333C0.933333 10.991 1.14227 11.2 1.4 11.2H6.53333V6.53333ZM7.46667 11.2V6.53333H13.0667V10.7333C13.0667 10.991 12.8577 11.2 12.6 11.2H7.46667ZM1.4 0C0.626801 0 0 0.626799 0 1.4V10.7333C0 11.5065 0.626801 12.1333 1.4 12.1333H12.6C13.3732 12.1333 14 11.5065 14 10.7333V1.4C14 0.626799 13.3732 0 12.6 0H1.4Z" fill="#9A9FBF"/>
</svg>
