<svg width="14" height="8" viewBox="0 0 14 8" fill="none" xmlns="http://www.w3.org/2000/svg">
<path fill-rule="evenodd" clip-rule="evenodd" d="M0.792453 1.58491C1.23011 1.58491 1.58491 1.23011 1.58491 0.792453C1.58491 0.354797 1.23011 0 0.792453 0C0.354797 0 0 0.354797 0 0.792453C0 1.23011 0.354797 1.58491 0.792453 1.58491ZM3.43396 0.792453C3.43396 0.500682 3.67049 0.264151 3.96226 0.264151H13.4717C13.7634 0.264151 14 0.500682 14 0.792453C14 1.08422 13.7634 1.32075 13.4717 1.32075H3.96226C3.67049 1.32075 3.43396 1.08422 3.43396 0.792453ZM3.96226 3.43396C3.67049 3.43396 3.43396 3.67049 3.43396 3.96226C3.43396 4.25403 3.67049 4.49057 3.96226 4.49057H13.4717C13.7634 4.49057 14 4.25403 14 3.96226C14 3.67049 13.7634 3.43396 13.4717 3.43396H3.96226ZM3.96226 6.60377C3.67049 6.60377 3.43396 6.84035 3.43396 7.13208C3.43396 7.4238 3.67049 7.66038 3.96226 7.66038H13.4717C13.7634 7.66038 14 7.4238 14 7.13208C14 6.84035 13.7634 6.60377 13.4717 6.60377H3.96226ZM1.58491 3.96226C1.58491 4.39992 1.23011 4.75472 0.792453 4.75472C0.354797 4.75472 0 4.39992 0 3.96226C0 3.52461 0.354797 3.16981 0.792453 3.16981C1.23011 3.16981 1.58491 3.52461 1.58491 3.96226ZM0.792453 7.92453C1.23011 7.92453 1.58491 7.56972 1.58491 7.13208C1.58491 6.69443 1.23011 6.33962 0.792453 6.33962C0.354797 6.33962 0 6.69443 0 7.13208C0 7.56972 0.354797 7.92453 0.792453 7.92453Z" fill="#9A9FBF"/>
</svg>
