<svg width="133" height="36" viewBox="0 0 133 36" fill="none" xmlns="http://www.w3.org/2000/svg">
<rect x="2" y="7.14307" width="30.6667" height="26.8571" rx="13.4286" stroke="url(#paint0_linear_1676_205)" stroke-width="4"/>
<rect x="11.6191" width="11.4286" height="3.04762" rx="1.52381" fill="#0184FB"/>
<path d="M44.1065 8.416H47.2425L53.2905 20.568H53.0665L59.1145 8.416H62.1665V26H59.9545V10.684H60.3465L53.9065 23.788H52.4505L46.0385 10.768H46.2905V26H44.1065V8.416ZM83.4095 26V18.132C83.4095 16.8533 83.1015 15.8827 82.4855 15.22C81.8789 14.548 81.0575 14.212 80.0215 14.212C78.8082 14.212 77.8795 14.6833 77.2355 15.626C76.5915 16.5593 76.2695 17.852 76.2695 19.504H75.2615C75.2615 18.3 75.3782 17.2453 75.6115 16.34C75.8542 15.4347 76.2042 14.6833 76.6615 14.086C77.1189 13.4793 77.6742 13.0267 78.3275 12.728C78.9809 12.4293 79.7229 12.28 80.5535 12.28C81.6082 12.28 82.5089 12.518 83.2555 12.994C84.0115 13.4607 84.5902 14.1327 84.9915 15.01C85.3929 15.8873 85.5935 16.928 85.5935 18.132V26H83.4095ZM64.5935 26V12.616H66.4695L66.7215 15.304C67.1415 14.3333 67.7295 13.5867 68.4855 13.064C69.2509 12.5413 70.1655 12.28 71.2295 12.28C72.2842 12.28 73.1849 12.518 73.9315 12.994C74.6875 13.4607 75.2662 14.1327 75.6675 15.01C76.0689 15.8873 76.2695 16.928 76.2695 18.132V26H74.1135V18.132C74.1135 16.8533 73.8055 15.8827 73.1895 15.22C72.5829 14.548 71.7522 14.212 70.6975 14.212C69.8949 14.212 69.1995 14.4313 68.6115 14.87C68.0235 15.3087 67.5709 15.9387 67.2535 16.76C66.9362 17.572 66.7775 18.5427 66.7775 19.672V26H64.5935ZM92.2169 26.336C91.0595 26.336 90.0235 26.042 89.1089 25.454C88.2035 24.8567 87.4849 24.0307 86.9529 22.976C86.4302 21.9213 86.1689 20.708 86.1689 19.336C86.1689 17.8707 86.4302 16.6107 86.9529 15.556C87.4755 14.5013 88.1895 13.694 89.0949 13.134C90.0095 12.5647 91.0502 12.28 92.2169 12.28C93.2342 12.28 94.1022 12.4853 94.8209 12.896C95.5395 13.3067 96.1182 13.862 96.5569 14.562C96.9955 15.262 97.2989 16.0553 97.4669 16.942C97.6442 17.8193 97.6955 18.7293 97.6209 19.672H87.9329V18.328H96.1789L95.5349 18.748C95.5629 18.1973 95.5302 17.6467 95.4369 17.096C95.3529 16.5453 95.1895 16.0413 94.9469 15.584C94.7042 15.1173 94.3635 14.744 93.9249 14.464C93.4862 14.184 92.9262 14.044 92.2449 14.044C91.3862 14.044 90.6675 14.2633 90.0889 14.702C89.5102 15.1407 89.0762 15.7193 88.7869 16.438C88.4975 17.1473 88.3529 17.9173 88.3529 18.748V19.644C88.3529 20.5773 88.4929 21.4127 88.7729 22.15C89.0622 22.8873 89.4915 23.4707 90.0609 23.9C90.6302 24.3293 91.3489 24.544 92.2169 24.544C93.0849 24.544 93.7989 24.334 94.3589 23.914C94.9189 23.494 95.2595 22.8733 95.3809 22.052H97.6489C97.5089 22.9387 97.1915 23.704 96.6969 24.348C96.2022 24.9827 95.5722 25.4727 94.8069 25.818C94.0415 26.1633 93.1782 26.336 92.2169 26.336ZM98.7317 26V6.904H100.916V26H98.7317ZM100.58 18.328L107.412 12.616H110.464L100.58 20.652V18.328ZM108.084 26L101.728 17.544L103.94 17.152L110.772 26H108.084ZM120.389 12.588H122.573V26H120.389V12.588ZM110.897 12.588H113.081V20.932C113.081 22.052 113.352 22.9013 113.893 23.48C114.444 24.0587 115.228 24.348 116.245 24.348C117.085 24.348 117.813 24.124 118.429 23.676C119.054 23.228 119.535 22.612 119.871 21.828C120.216 21.0347 120.389 20.1293 120.389 19.112H121.201C121.201 20.6147 120.982 21.898 120.543 22.962C120.114 24.026 119.502 24.8427 118.709 25.412C117.925 25.972 117.001 26.252 115.937 26.252C114.929 26.252 114.047 26.0653 113.291 25.692C112.535 25.3187 111.947 24.754 111.527 23.998C111.107 23.2327 110.897 22.2667 110.897 21.1V12.588ZM129.138 26.336C128.41 26.336 127.757 26.196 127.178 25.916C126.599 25.636 126.142 25.216 125.806 24.656C125.47 24.096 125.302 23.396 125.302 22.556V8.892H127.458V22.5C127.458 23.8813 128.102 24.572 129.39 24.572C129.773 24.572 130.141 24.53 130.496 24.446C130.86 24.362 131.266 24.236 131.714 24.068L132.022 25.636C131.546 25.8413 131.07 26.0093 130.594 26.14C130.127 26.2707 129.642 26.336 129.138 26.336ZM123.146 14.128V12.616H131.686V14.128H123.146Z" fill="#0184FB"/>
<defs>
<linearGradient id="paint0_linear_1676_205" x1="13.7778" y1="14.4368" x2="23.9884" y2="38.7516" gradientUnits="userSpaceOnUse">
<stop offset="0.223958" stop-color="#0184FB"/>
<stop offset="1" stop-color="#46F08A" stop-opacity="0.15"/>
</linearGradient>
</defs>
</svg>
