<svg width="32" height="32" viewBox="0 0 32 32" fill="none" xmlns="http://www.w3.org/2000/svg">
<path fill-rule="evenodd" clip-rule="evenodd" d="M17.3333 4C17.3333 3.26362 16.7363 2.66666 16 2.66666C15.2636 2.66666 14.6666 3.26362 14.6666 4V5H13.9234C10.9566 5 8.50118 7.30668 8.31598 10.2677L8.02131 14.9789C7.90896 16.7752 7.30591 18.5062 6.27783 19.9834C5.34892 21.3182 6.17588 23.1616 7.79046 23.3554L12.3333 23.9005V25.3333C12.3333 27.3584 13.9749 29 16 29C18.025 29 19.6666 27.3584 19.6666 25.3333V23.9005L24.2095 23.3554C25.824 23.1616 26.651 21.3182 25.7221 19.9834C24.694 18.5062 24.0909 16.7752 23.9786 14.9789L23.6839 10.2677C23.4987 7.30668 21.0433 5 18.0765 5H17.3333V4ZM13.9234 7C12.0127 7 10.4314 8.48556 10.3121 10.3925L10.0174 15.1038C9.88222 17.2653 9.15654 19.3483 7.91941 21.1259C7.85227 21.2224 7.91204 21.3556 8.02875 21.3696L13.0123 21.9676C14.9969 22.2058 17.003 22.2058 18.9876 21.9676L23.9712 21.3696C24.0879 21.3556 24.1476 21.2224 24.0805 21.1259C22.8434 19.3483 22.1177 17.2653 21.9825 15.1038L21.6878 10.3925C21.5686 8.48556 19.9872 7 18.0765 7H13.9234ZM16 27C15.0795 27 14.3333 26.2538 14.3333 25.3333V24.3333H17.6666V25.3333C17.6666 26.2538 16.9204 27 16 27Z" fill="black"/>
</svg>
