<svg width="21" height="20" viewBox="0 0 21 20" fill="none" xmlns="http://www.w3.org/2000/svg">
<circle cx="10" cy="10" r="9.75" stroke="#9A9FBF" stroke-width="0.5" stroke-dasharray="1 2"/>
<path fill-rule="evenodd" clip-rule="evenodd" d="M9.99999 5C8.53732 5 7.35159 6.18573 7.35159 7.64841C7.35159 8.85599 8.1598 9.87481 9.26482 10.1934C8.39246 10.2997 7.64424 10.6083 7.08059 11.1638C6.36321 11.8708 6 12.9233 6 14.2967C6 14.4885 6.15538 14.6438 6.34703 14.6438C6.5387 14.6438 6.69407 14.4885 6.69407 14.2967C6.69407 13.0401 7.02491 12.1931 7.56778 11.6581C8.11167 11.1221 8.92364 10.8448 9.99996 10.8448C11.0763 10.8448 11.8883 11.1221 12.4322 11.6581C12.975 12.1931 13.3059 13.0401 13.3059 14.2967C13.3059 14.4885 13.4613 14.6438 13.653 14.6438C13.8446 14.6439 14 14.4885 14 14.2968C14 12.9233 13.6367 11.8708 12.9194 11.1638C12.3557 10.6083 11.6075 10.2998 10.7352 10.1934C11.8401 9.87482 12.6484 8.856 12.6484 7.64841C12.6484 6.18573 11.4627 5 9.99999 5ZM8.04565 7.64841C8.04565 6.56905 8.92064 5.69407 9.99999 5.69407C11.0793 5.69407 11.9543 6.56905 11.9543 7.64841C11.9543 8.72776 11.0793 9.60275 9.99999 9.60275C8.92064 9.60275 8.04565 8.72776 8.04565 7.64841Z" fill="#9A9FBF"/>
<circle cx="16.5" cy="14.5" r="4.5" fill="#9A9FBF"/>
<path d="M19 15H15M17 13V17" stroke="white" stroke-width="0.5" stroke-linecap="round"/>
</svg>
