<svg width="34" height="34" viewBox="0 0 34 34" fill="none" xmlns="http://www.w3.org/2000/svg">
<path d="M11.8442 10.8126C11.5513 10.5197 11.0764 10.5197 10.7835 10.8126C10.4906 11.1055 10.4906 11.5803 10.7835 11.8732L11.8442 10.8126ZM22.0972 23.1869C22.3901 23.4798 22.865 23.4798 23.1579 23.1869C23.4508 22.894 23.4508 22.4192 23.1579 22.1263L22.0972 23.1869ZM23.1579 11.8732C23.4508 11.5803 23.4508 11.1055 23.1579 10.8126C22.865 10.5197 22.3901 10.5197 22.0972 10.8126L23.1579 11.8732ZM10.7835 22.1263C10.4906 22.4192 10.4906 22.894 10.7835 23.1869C11.0764 23.4798 11.5513 23.4798 11.8442 23.1869L10.7835 22.1263ZM10.7835 11.8732L22.0972 23.1869L23.1579 22.1263L11.8442 10.8126L10.7835 11.8732ZM22.0972 10.8126L10.7835 22.1263L11.8442 23.1869L23.1579 11.8732L22.0972 10.8126Z" fill="#333333"/>
</svg>
