<svg width="26" height="26" viewBox="0 0 26 26" fill="none" xmlns="http://www.w3.org/2000/svg">
<path d="M24.2929 25.7071C24.6834 26.0976 25.3166 26.0976 25.7071 25.7071C26.0976 25.3166 26.0976 24.6834 25.7071 24.2929L24.2929 25.7071ZM19.7823 18.3681C19.3918 17.9776 18.7587 17.9776 18.3681 18.3681C17.9776 18.7587 17.9776 19.3918 18.3681 19.7824L19.7823 18.3681ZM11.5882 21.1765C6.2928 21.1765 2 16.8837 2 11.5882H0C0 17.9882 5.18824 23.1765 11.5882 23.1765V21.1765ZM2 11.5882C2 6.2928 6.2928 2 11.5882 2V0C5.18824 0 0 5.18822 0 11.5882H2ZM11.5882 2C16.8837 2 21.1765 6.2928 21.1765 11.5882H23.1765C23.1765 5.18822 17.9883 0 11.5882 0V2ZM21.1765 11.5882C21.1765 16.8837 16.8837 21.1765 11.5882 21.1765V23.1765C17.9883 23.1765 23.1765 17.9882 23.1765 11.5882H21.1765ZM25.7071 24.2929L19.7823 18.3681L18.3681 19.7824L24.2929 25.7071L25.7071 24.2929Z" fill="#0184FB"/>
</svg>
