<svg width="16" height="14" viewBox="0 0 16 14" fill="none" xmlns="http://www.w3.org/2000/svg">
<path fill-rule="evenodd" clip-rule="evenodd" d="M0.775802 0.0464365C0.557032 -0.0484641 0.300513 0.00516871 0.140775 0.17921C-0.0189648 0.353252 -0.0454685 0.607976 0.0751626 0.809802L3.77506 7.00002L0.0751626 13.1903C-0.0454685 13.3921 -0.0189648 13.6468 0.140775 13.8208C0.300513 13.9948 0.557032 14.0485 0.775802 13.9536L15.6724 7.49206C15.8716 7.40564 16 7.21281 16 7.00002C16 6.78722 15.8716 6.59438 15.6724 6.50796L0.775802 0.0464365ZM4.79506 6.56925L1.88948 1.708L14.0898 7.00002L1.88948 12.292L4.79506 7.43079H9.37931C9.62307 7.43079 9.82069 7.23793 9.82069 7.00002C9.82069 6.76212 9.62307 6.56925 9.37931 6.56925H4.79506Z" fill="#9A9FBF"/>
</svg>
