<svg width="14" height="14" viewBox="0 0 14 14" fill="none" xmlns="http://www.w3.org/2000/svg">
<path fill-rule="evenodd" clip-rule="evenodd" d="M4.30769 7.00002C4.30769 7.89216 3.58446 8.6154 2.69231 8.6154C1.80015 8.6154 1.07692 7.89216 1.07692 7.00002C1.07692 6.10786 1.80015 5.38463 2.69231 5.38463C3.58446 5.38463 4.30769 6.10786 4.30769 7.00002ZM5.07568 8.2534C4.62479 9.10901 3.72667 9.6923 2.69231 9.6923C1.20539 9.6923 0 8.48694 0 7.00002C0 5.51308 1.20539 4.3077 2.69231 4.3077C3.72667 4.3077 4.62479 4.89101 5.07568 5.74662L8.72764 3.46413C8.65462 3.21963 8.61539 2.96055 8.61539 2.69231C8.61539 1.20539 9.82079 0 11.3077 0C12.7946 0 14 1.20539 14 2.69231C14 4.17924 12.7946 5.38463 11.3077 5.38463C10.437 5.38463 9.66284 4.97131 9.17071 4.33018L5.36878 6.70639C5.37925 6.80282 5.38462 6.90079 5.38462 7.00002C5.38462 7.09923 5.37925 7.19719 5.36878 7.29363L9.17072 9.66984C9.66285 9.02872 10.437 8.6154 11.3077 8.6154C12.7946 8.6154 14 9.82078 14 11.3077C14 12.7946 12.7946 14 11.3077 14C9.82079 14 8.61539 12.7946 8.61539 11.3077C8.61539 11.0394 8.65462 10.7804 8.72765 10.5359L5.07568 8.2534ZM11.3077 4.3077C12.1998 4.3077 12.9231 3.58447 12.9231 2.69231C12.9231 1.80016 12.1998 1.07693 11.3077 1.07693C10.4156 1.07693 9.69231 1.80016 9.69231 2.69231C9.69231 3.58447 10.4156 4.3077 11.3077 4.3077ZM12.9231 11.3077C12.9231 12.1999 12.1998 12.9231 11.3077 12.9231C10.4156 12.9231 9.69231 12.1999 9.69231 11.3077C9.69231 10.4156 10.4156 9.6923 11.3077 9.6923C12.1998 9.6923 12.9231 10.4156 12.9231 11.3077Z" fill="#9A9FBF"/>
</svg>
