<svg width="26" height="26" viewBox="0 0 26 26" fill="none" xmlns="http://www.w3.org/2000/svg">
<path d="M8.2 12.6316C7.64772 12.6316 7.2 13.0793 7.2 13.6316C7.2 14.1839 7.64772 14.6316 8.2 14.6316V12.6316ZM14.6 14.6316C15.1523 14.6316 15.6 14.1839 15.6 13.6316C15.6 13.0793 15.1523 12.6316 14.6 12.6316V14.6316ZM8.2 17.6842C7.64772 17.6842 7.2 18.1319 7.2 18.6842C7.2 19.2365 7.64772 19.6842 8.2 19.6842V17.6842ZM17.8 19.6842C18.3523 19.6842 18.8 19.2365 18.8 18.6842C18.8 18.1319 18.3523 17.6842 17.8 17.6842V19.6842ZM8.2 1V0C7.64772 0 7.2 0.447715 7.2 1L8.2 1ZM17.8 1H18.8C18.8 0.447715 18.3523 0 17.8 0V1ZM17.8 4.78947V5.78947C18.3523 5.78947 18.8 5.34176 18.8 4.78947H17.8ZM8.2 4.78947H7.2C7.2 5.34176 7.64772 5.78947 8.2 5.78947V4.78947ZM8.2 14.6316H14.6V12.6316H8.2V14.6316ZM8.2 19.6842H17.8V17.6842H8.2V19.6842ZM8.2 2H17.8V0H8.2V2ZM17.8 3.78947H8.2V5.78947H17.8V3.78947ZM16.8 1V2.61594H18.8V1H16.8ZM16.8 2.61594V4.78947H18.8V2.61594H16.8ZM9.2 4.78947V2.61594H7.2V4.78947H9.2ZM9.2 2.61594V1H7.2V2.61594H9.2ZM13 24C8.44067 24 5.79696 23.3187 4.24657 21.8499C2.7132 20.3972 2 17.9317 2 13.6316H0C0 18.025 0.698561 21.2436 2.87108 23.3018C5.02657 25.3438 8.38286 26 13 26V24ZM24 13.6316C24 17.9317 23.2868 20.3972 21.7534 21.8499C20.203 23.3187 17.5593 24 13 24V26C17.6171 26 20.9734 25.3438 23.1289 23.3018C25.3014 21.2436 26 18.025 26 13.6316H24ZM17.6234 3.60022C20.1513 4.05377 21.6548 4.96731 22.5815 6.42105C23.548 7.93737 24 10.2087 24 13.6316H26C26 10.1118 25.5516 7.35964 24.268 5.34599C22.9444 3.26976 20.848 2.14683 17.9766 1.63165L17.6234 3.60022ZM2 13.6316C2 10.2087 2.45195 7.93737 3.41854 6.42105C4.34523 4.96731 5.84874 4.05377 8.3766 3.60022L8.0234 1.63165C5.15204 2.14683 3.05555 3.26976 1.73205 5.34599C0.448439 7.35964 0 10.1118 0 13.6316H2Z" fill="#0184FB"/>
</svg>
