<svg width="14" height="14" viewBox="0 0 14 14" fill="none" xmlns="http://www.w3.org/2000/svg">
<path fill-rule="evenodd" clip-rule="evenodd" d="M3.76923 0C4.06661 0 4.30769 0.24108 4.30769 0.538462V1.07692H9.69231V0.538462C9.69231 0.24108 9.93343 0 10.2308 0C10.5281 0 10.7692 0.24108 10.7692 0.538462V1.07692H12.3846C13.2767 1.07692 14 1.80015 14 2.69231V12.3846C14 13.2767 13.2767 14 12.3846 14H1.61538C0.723229 14 0 13.2767 0 12.3846V2.69231C0 1.80015 0.723229 1.07692 1.61538 1.07692H3.23077V0.538462C3.23077 0.24108 3.47185 0 3.76923 0ZM9.69231 2.15385V2.69231C9.69231 2.98969 9.93343 3.23077 10.2308 3.23077C10.5281 3.23077 10.7692 2.98969 10.7692 2.69231V2.15385H12.3846C12.682 2.15385 12.9231 2.39493 12.9231 2.69231V4.30769H1.07692V2.69231C1.07692 2.39493 1.318 2.15385 1.61538 2.15385H3.23077V2.69231C3.23077 2.98969 3.47185 3.23077 3.76923 3.23077C4.06661 3.23077 4.30769 2.98969 4.30769 2.69231V2.15385H9.69231ZM1.07692 5.38462V12.3846C1.07692 12.682 1.318 12.9231 1.61538 12.9231H12.3846C12.682 12.9231 12.9231 12.682 12.9231 12.3846V5.38462H1.07692ZM6.46154 7C6.46154 6.70262 6.70262 6.46154 7 6.46154C7.29738 6.46154 7.53846 6.70262 7.53846 7C7.53846 7.29738 7.29738 7.53846 7 7.53846C6.70262 7.53846 6.46154 7.29738 6.46154 7ZM9.15385 6.46154C8.85647 6.46154 8.61539 6.70262 8.61539 7C8.61539 7.29738 8.85647 7.53846 9.15385 7.53846C9.45123 7.53846 9.69231 7.29738 9.69231 7C9.69231 6.70262 9.45123 6.46154 9.15385 6.46154ZM10.7692 7C10.7692 6.70262 11.0104 6.46154 11.3077 6.46154C11.605 6.46154 11.8462 6.70262 11.8462 7C11.8462 7.29738 11.605 7.53846 11.3077 7.53846C11.0104 7.53846 10.7692 7.29738 10.7692 7ZM11.3077 8.61539C11.0104 8.61539 10.7692 8.85647 10.7692 9.15385C10.7692 9.45123 11.0104 9.69231 11.3077 9.69231C11.605 9.69231 11.8462 9.45123 11.8462 9.15385C11.8462 8.85647 11.605 8.61539 11.3077 8.61539ZM8.61539 9.15385C8.61539 8.85647 8.85647 8.61539 9.15385 8.61539C9.45123 8.61539 9.69231 8.85647 9.69231 9.15385C9.69231 9.45123 9.45123 9.69231 9.15385 9.69231C8.85647 9.69231 8.61539 9.45123 8.61539 9.15385ZM7 8.61539C6.70262 8.61539 6.46154 8.85647 6.46154 9.15385C6.46154 9.45123 6.70262 9.69231 7 9.69231C7.29738 9.69231 7.53846 9.45123 7.53846 9.15385C7.53846 8.85647 7.29738 8.61539 7 8.61539ZM4.30769 9.15385C4.30769 8.85647 4.54877 8.61539 4.84615 8.61539C5.14354 8.61539 5.38462 8.85647 5.38462 9.15385C5.38462 9.45123 5.14354 9.69231 4.84615 9.69231C4.54877 9.69231 4.30769 9.45123 4.30769 9.15385ZM2.69231 8.61539C2.39493 8.61539 2.15385 8.85647 2.15385 9.15385C2.15385 9.45123 2.39493 9.69231 2.69231 9.69231C2.98969 9.69231 3.23077 9.45123 3.23077 9.15385C3.23077 8.85647 2.98969 8.61539 2.69231 8.61539ZM2.15385 11.3077C2.15385 11.0104 2.39493 10.7692 2.69231 10.7692C2.98969 10.7692 3.23077 11.0104 3.23077 11.3077C3.23077 11.605 2.98969 11.8462 2.69231 11.8462C2.39493 11.8462 2.15385 11.605 2.15385 11.3077ZM4.84615 10.7692C4.54877 10.7692 4.30769 11.0104 4.30769 11.3077C4.30769 11.605 4.54877 11.8462 4.84615 11.8462C5.14354 11.8462 5.38462 11.605 5.38462 11.3077C5.38462 11.0104 5.14354 10.7692 4.84615 10.7692ZM6.46154 11.3077C6.46154 11.0104 6.70262 10.7692 7 10.7692C7.29738 10.7692 7.53846 11.0104 7.53846 11.3077C7.53846 11.605 7.29738 11.8462 7 11.8462C6.70262 11.8462 6.46154 11.605 6.46154 11.3077ZM9.15385 10.7692C8.85647 10.7692 8.61539 11.0104 8.61539 11.3077C8.61539 11.605 8.85647 11.8462 9.15385 11.8462C9.45123 11.8462 9.69231 11.605 9.69231 11.3077C9.69231 11.0104 9.45123 10.7692 9.15385 10.7692Z" fill="#46F080"/>
</svg>
