<svg width="11" height="12" viewBox="0 0 11 12" fill="none" xmlns="http://www.w3.org/2000/svg">
<path fill-rule="evenodd" clip-rule="evenodd" d="M5.39146 0.12213C5.22861 -0.0407099 4.96459 -0.0407099 4.80174 0.12213L2.0218 2.90207C1.85896 3.06492 1.85896 3.32894 2.0218 3.49179C2.18465 3.65463 2.44867 3.65463 2.61152 3.49179L4.67961 1.4237V7.83005C4.67961 8.06035 4.8663 8.24704 5.0966 8.24704C5.3269 8.24704 5.51359 8.06035 5.51359 7.83005V1.4237L7.58173 3.49179C7.74454 3.65463 8.00854 3.65463 8.17136 3.49179C8.33426 3.32894 8.33426 3.06492 8.17136 2.90207L5.39146 0.12213ZM0.463323 8.29339C0.719208 8.29339 0.926647 8.5008 0.926647 8.75674V10.1467C0.926647 10.6599 1.33961 11.0734 1.84991 11.0734H8.34093C8.85216 11.0734 9.26647 10.659 9.26647 10.1467V8.75674C9.26647 8.5008 9.47394 8.29339 9.72979 8.29339C9.98564 8.29339 10.1931 8.5008 10.1931 8.75674V10.1467C10.1931 11.1697 9.36488 12 8.34093 12H1.84991C0.824892 12 0 11.1688 0 10.1467V8.75674C0 8.5008 0.207439 8.29339 0.463323 8.29339Z" fill="#9A9FBF"/>
</svg>
